<?xml version="1.0" encoding="UTF-8"?>
<svg width="90px" height="80px" viewBox="0 0 90 80" version="1.1" xmlns="http://www.w3.org/2000/svg" xmlns:xlink="http://www.w3.org/1999/xlink">
    <!-- Generator: Sketch 51.3 (57544) - http://www.bohemiancoding.com/sketch -->
    <title>Untitled</title>
    <desc>Created with Sketch.</desc>
    <defs></defs>
    <g id="Page-1" stroke="none" stroke-width="1" fill="none" fill-rule="evenodd">
        <polygon id="Path-3" fill="#00AED9" fill-rule="nonzero" points="18.120886 48.6976417 9.01352806 58.2230613 9.01352806 67.2210652 13.567207 75.0548833 30.9472511 77.8661547 51.5406606 77.8661547 68.9792527 77.8661547 78.2772545 72.170064 82.1665831 60.930785 76.7772646 50.9379492 64.0902534 48.6976417 48.9955165 48.6976417"></polygon>
        <polygon id="Path-2" fill="#00AED9" fill-rule="nonzero" points="25.3556759 47.7231321 25.3556759 16.2823764 38.0020422 4.53116535 51.385823 4.53116535 62.5418768 13.4740083 65.9454022 26.1271487 65.9454022 43.3034845 65.9454022 47.7231321"></polygon>
        <circle id="Oval-2" fill="#FF535B" fill-rule="nonzero" cx="45" cy="27" r="9"></circle>
        <circle id="Oval-2-Copy" fill="#FF535B" fill-rule="nonzero" cx="23.5" cy="62.5" r="6.5"></circle>
        <circle id="Oval-2-Copy-2" fill="#FF535B" fill-rule="nonzero" cx="44.5" cy="62.5" r="6.5"></circle>
        <circle id="Oval-2-Copy-3" fill="#FF535B" fill-rule="nonzero" cx="65.5" cy="62.5" r="6.5"></circle>
        <g id="noun_Robot_826071" fill="#000000" fill-rule="nonzero">
            <g id="Group">
                <path d="M73.112,39.389 C78.019,39.389 82.011,35.31 82.011,30.295 L82.011,19.724 C86.587,18.586 90,14.365 90,9.334 C90,5.735 88.24,2.401 85.292,0.417 L82.54,4.506 C84.124,5.573 85.07,7.378 85.07,9.334 C85.07,12.517 82.594,15.106 79.549,15.106 C76.5,15.106 74.02,12.517 74.02,9.334 C74.02,7.378 74.966,5.573 76.551,4.507 L73.799,0.417 C70.85,2.401 69.09,5.735 69.09,9.334 C69.09,14.364 72.503,18.583 77.08,19.722 L77.08,30.295 C77.08,32.591 75.299,34.46 73.11,34.46 L67.625,34.46 L67.625,23.963 C67.625,11.487 57.474,1.337 44.998,1.337 C32.522,1.337 22.372,11.487 22.372,23.963 L22.372,34.46 L16.886,34.46 C14.698,34.46 12.917,32.592 12.917,30.295 L12.917,19.722 C17.495,18.582 20.907,14.363 20.907,9.334 C20.907,5.735 19.147,2.401 16.198,0.417 L13.446,4.506 C15.031,5.573 15.977,7.378 15.977,9.334 C15.977,12.517 13.497,15.106 10.448,15.106 C7.404,15.106 4.926,12.517 4.926,9.334 C4.926,7.378 5.872,5.573 7.457,4.506 L4.705,0.417 C1.76,2.401 0,5.735 0,9.334 C0,14.366 3.413,18.586 7.99,19.724 L7.99,30.295 C7.99,35.31 11.982,39.389 16.888,39.389 L22.374,39.389 L22.374,45.732 C13.184,45.903 5.756,53.419 5.756,62.65 C5.756,71.988 13.352,79.584 22.69,79.584 L67.311,79.584 C76.648,79.584 84.245,71.988 84.245,62.65 C84.245,53.419 76.818,45.903 67.627,45.732 L67.627,39.389 L73.112,39.389 Z M27.304,23.963 C27.304,14.205 35.242,6.266 45,6.266 C54.758,6.266 62.697,14.205 62.697,23.963 L62.697,45.716 L27.304,45.716 L27.304,23.963 Z M79.315,62.649 C79.315,69.268 73.93,74.654 67.311,74.654 L22.69,74.654 C16.071,74.654 10.686,69.269 10.686,62.649 C10.686,56.029 16.071,50.644 22.69,50.644 L67.311,50.644 C73.93,50.645 79.315,56.03 79.315,62.649 Z" id="Shape"></path>
                <path d="M23.81,71.221 C28.536,71.221 32.382,67.376 32.382,62.649 C32.382,57.923 28.537,54.077 23.81,54.077 C19.083,54.077 15.238,57.922 15.238,62.649 C15.238,67.376 19.083,71.221 23.81,71.221 Z M23.81,57.948 C26.406,57.948 28.511,60.053 28.511,62.649 C28.511,65.246 26.406,67.35 23.81,67.35 C21.214,67.35 19.109,65.245 19.109,62.649 C19.108,60.053 21.213,57.948 23.81,57.948 Z" id="Shape"></path>
                <circle id="Oval" cx="23.81" cy="62.649" r="1.432"></circle>
                <path d="M45,71.221 C49.726,71.221 53.572,67.376 53.572,62.649 C53.572,57.923 49.727,54.077 45,54.077 C40.273,54.077 36.428,57.922 36.428,62.649 C36.429,67.376 40.274,71.221 45,71.221 Z M45,57.948 C47.596,57.948 49.701,60.053 49.701,62.649 C49.701,65.246 47.596,67.35 45,67.35 C42.404,67.35 40.299,65.245 40.299,62.649 C40.299,60.053 42.404,57.948 45,57.948 Z" id="Shape"></path>
                <circle id="Oval" cx="45" cy="62.649" r="1.432"></circle>
                <path d="M66.191,71.221 C70.917,71.221 74.763,67.376 74.763,62.649 C74.763,57.923 70.918,54.077 66.191,54.077 C61.465,54.077 57.619,57.922 57.619,62.649 C57.62,67.376 61.465,71.221 66.191,71.221 Z M66.191,57.948 C68.787,57.948 70.892,60.053 70.892,62.649 C70.892,65.246 68.787,67.35 66.191,67.35 C63.594,67.35 61.49,65.245 61.49,62.649 C61.49,60.053 63.595,57.948 66.191,57.948 Z" id="Shape"></path>
                <circle id="Oval" cx="66.191" cy="62.649" r="1.432"></circle>
                <path d="M44.806,14.782 C38.272,14.782 32.957,20.097 32.957,26.631 C32.957,33.165 38.272,38.48 44.806,38.48 C51.34,38.48 56.655,33.165 56.655,26.631 C56.655,20.097 51.339,14.782 44.806,14.782 Z M44.806,33.551 C40.984,33.551 37.886,30.453 37.886,26.631 C37.886,22.809 40.984,19.711 44.806,19.711 C48.628,19.711 51.726,22.809 51.726,26.631 C51.725,30.453 48.627,33.551 44.806,33.551 Z" id="Shape"></path>
                <circle id="Oval" cx="44.806" cy="26.631" r="2.108"></circle>
            </g>
        </g>
    </g>
</svg>